PathFileType	4	(X/Y/Z)	Kaydara	
DataRate	CameraRate	NumFrames	NumMarkers	Units	OrigDataRate	OrigDataStartFrame	OrigNumFrames	
120.00	120.00	4	72	mm	120.00	135	268	
Frame#	Time	Hips			RightUpLeg			RightLeg			RightFoot			RightFoot_End			LeftUpLeg			LeftLeg			LeftFoot			LeftFoot_End			Spine			Spine1			Spine2			Spine3			Neck			Head			Head_End			RightShoulder			RightArm			RightForeArm			RightHand			RightHandThumb1			RightHandThumb2			RightHandThumb3			RightHandThumb3_End			RightInHandIndex			RightHandIndex1			RightHandIndex2			RightHandIndex3			RightHandIndex3_End			RightInHandMiddle			RightHandMiddle1			RightHandMiddle2			RightHandMiddle3			RightHandMiddle3_End			RightInHandRing			RightHandRing1			RightHandRing2			RightHandRing3			RightHandRing3_End			RightInHandPinky			RightHandPinky1			RightHandPinky2			RightHandPinky3			RightHandPinky3_End			LeftShoulder			LeftArm			LeftForeArm			LeftHand			LeftHandThumb1			LeftHandThumb2			LeftHandThumb3			LeftHandThumb3_End			LeftInHandIndex			LeftHandIndex1			LeftHandIndex2			LeftHandIndex3			LeftHandIndex3_End			LeftInHandMiddle			LeftHandMiddle1			LeftHandMiddle2			LeftHandMiddle3			LeftHandMiddle3_End			LeftInHandRing			LeftHandRing1			LeftHandRing2			LeftHandRing3			LeftHandRing3_End			LeftInHandPinky			LeftHandPinky1			LeftHandPinky2			LeftHandPinky3			LeftHandPinky3_End			
		X1	Y1	Z1	X2	Y2	Z2	X3	Y3	Z3	X4	Y4	Z4	X5	Y5	Z5	X6	Y6	Z6	X7	Y7	Z7	X8	Y8	Z8	X9	Y9	Z9	X10	Y10	Z10	X11	Y11	Z11	X12	Y12	Z12	X13	Y13	Z13	X14	Y14	Z14	X15	Y15	Z15	X16	Y16	Z16	X17	Y17	Z17	X18	Y18	Z18	X19	Y19	Z19	X20	Y20	Z20	X21	Y21	Z21	X22	Y22	Z22	X23	Y23	Z23	X24	Y24	Z24	X25	Y25	Z25	X26	Y26	Z26	X27	Y27	Z27	X28	Y28	Z28	X29	Y29	Z29	X30	Y30	Z30	X31	Y31	Z31	X32	Y32	Z32	X33	Y33	Z33	X34	Y34	Z34	X35	Y35	Z35	X36	Y36	Z36	X37	Y37	Z37	X38	Y38	Z38	X39	Y39	Z39	X40	Y40	Z40	X41	Y41	Z41	X42	Y42	Z42	X43	Y43	Z43	X44	Y44	Z44	X45	Y45	Z45	X46	Y46	Z46	X47	Y47	Z47	X48	Y48	Z48	X49	Y49	Z49	X50	Y50	Z50	X51	Y51	Z51	X52	Y52	Z52	X53	Y53	Z53	X54	Y54	Z54	X55	Y55	Z55	X56	Y56	Z56	X57	Y57	Z57	X58	Y58	Z58	X59	Y59	Z59	X60	Y60	Z60	X61	Y61	Z61	X62	Y62	Z62	X63	Y63	Z63	X64	Y64	Z64	X65	Y65	Z65	X66	Y66	Z66	X67	Y67	Z67	X68	Y68	Z68	X69	Y69	Z69	X70	Y70	Z70	X71	Y71	Z71	X72	Y72	Z72	

135	1.117	7446.805	859.65103	-201.189	7540.937004367823	865.6510115302729	-217.622094809076	7404.432224938921	468.81026761274165	-239.20177354800828	7456.730103755523	48.40502220784612	-271.9919136451123	7383.327635558132	-27.96483277650621	-109.5040762518882	7361.009025362503	824.8570517783589	-172.14577842541877	7237.1689817854485	430.63535839316006	-104.95465010882548	7180.687160443418	73.10160250488575	109.19346460639724	7228.874959158981	45.95872920308674	292.32523735044197	7404.625375729492	985.045859627647	-255.39549992888922	7355.798408351053	1055.8644532178696	-300.8800272149008	7299.760503787117	1125.1317337262815	-349.55800523255544	7238.631507799174	1183.205842479898	-398.9574429137494	7172.485758301605	1245.4982321470297	-448.66546047866484	7139.047468675741	1320.232260722631	-399.9799447096457	7108.751860721303	1400.052709614284	-264.394786041477	7218.441882690999	1241.7159391812254	-444.9048272736253	7321.861948951843	1295.1702557157414	-503.1882871594734	7491.383356479904	1103.909867192786	-574.8947104501095	7673.274335368948	1148.161552382684	-757.4442822343993	7687.477060351675	1183.491470613291	-760.1178699525613	7694.238110795807	1207.6624283637238	-788.1494261703913	7700.694263163641	1221.0602504802148	-809.8306791607786	7707.571638089149	1229.2910213088126	-829.7532882539588	7696.695534180356	1174.9756735106625	-766.3316559301304	7731.825437386306	1200.8086583253332	-795.6134745014153	7747.458015600263	1215.8175766566446	-825.4709088992121	7748.188891547249	1224.3127430768438	-845.2052120331291	7742.731229355832	1230.7803666540278	-862.3298030250712	7699.807468483915	1164.5932481389314	-771.6381367499049	7735.757881947351	1184.1749529776723	-803.0663172819563	7753.1017862955105	1199.0952267708144	-836.2637556106035	7754.120614482829	1208.644948590211	-860.3685667250356	7748.21556031667	1215.381701035062	-879.249919232227	7701.217507415228	1156.6116747754368	-774.5636258691021	7734.976006616935	1167.2697352018668	-805.0458093825457	7750.327136919417	1178.7536479855828	-834.5628142363419	7751.434186294244	1187.1575556535283	-858.1228908590758	7745.940843754589	1193.1091169046363	-876.0225820309329	7700.974777979543	1146.5630236004858	-777.6882633832806	7732.161685890184	1150.1949579122652	-807.3260497236653	7744.671535580414	1156.9718848616071	-831.7377791854439	7745.584104231999	1161.9315961249245	-849.2977854039674	7740.778371892227	1166.5302863092636	-865.3699257930922	7169.0962137313145	1210.20073622081	-416.34364527163143	7088.237185606748	1114.4210964843242	-380.98134086520383	7230.217142629929	1071.0215992545602	-602.4352921959519	7477.842726527341	1134.8051707339378	-569.5094746409551	7492.208696546256	1168.4713988805652	-578.0250234522732	7514.547263783989	1180.644998464762	-604.1615051270894	7527.713597128702	1186.700932069834	-625.1834160409218	7536.6450052338305	1189.6777468848938	-645.1213063301217	7483.544993807395	1164.8273886086636	-588.2792122905594	7489.515905639189	1193.2880801305307	-630.1885656218953	7501.220655613658	1202.6857567435618	-662.7596682255142	7514.125222598579	1202.579523021721	-679.3293116895043	7528.602405990949	1198.4789633625085	-690.5618599764723	7477.194927904764	1156.7552735859163	-594.6536353787784	7479.5818687853225	1180.1517347913086	-638.9777156217925	7491.506262475781	1189.2360575936846	-675.2286746532845	7506.668323717783	1188.5462248691501	-695.5597480905906	7522.311215874924	1183.7864163566237	-708.0156724582052	7472.465142361946	1150.4215681546548	-598.0798935453695	7470.231999165397	1166.170813789015	-640.7545076904688	7479.756040009621	1172.8545316058917	-673.0062968415459	7493.919411592459	1171.5336817060568	-692.9652350178544	7508.408918284313	1166.7476514579062	-704.8418473892993	7467.558440766804	1141.5446523319583	-600.8762143885441	7462.181509318129	1150.846873177638	-641.7283644853898	7468.462201456159	1154.2040494884245	-668.3907292740084	7478.142013603588	1152.2756168973588	-683.3534207300713	7490.602692434817	1147.4806061742163	-694.1069967710582
136	1.125	7446.805	859.65103	-201.189	7540.465055335513	865.4435941024401	-217.7811614628341	7404.420773684252	468.51499281688956	-239.17667505522962	7457.3629994622825	48.61609816370654	-272.67554458781393	7384.537471729658	-27.936891013285255	-110.35726052744351	7361.4622941752505	825.0617396494704	-171.98281263309667	7237.562734152379	430.9151142737194	-104.51370476229113	7180.88815966157	73.27378369570167	109.24903068981553	7229.324382024868	45.93130801007121	292.2396830247699	7404.735477574822	985.0706690493969	-255.4022622898638	7355.957371753527	1055.9504214291744	-300.83627157216506	7299.969363607225	1125.2922123996618	-349.4495187749157	7238.896302025522	1183.4759990245627	-398.7687497174545	7172.805122071579	1245.876939434249	-448.38467041878863	7139.285584989718	1320.58489868423	-399.77117476216756	7108.986043550837	1400.476474070549	-264.2585772378773	7218.608260803955	1241.9608853859963	-444.6214148820018	7321.492635286981	1295.099941307417	-502.6294598305466	7490.754899228637	1104.3630675508841	-573.4382733058831	7671.973171232639	1149.2564500922017	-755.5043452409716	7686.086960152964	1184.6957482581688	-758.046279205327	7692.868954671241	1208.9912370879777	-785.9354991600268	7699.344000251329	1222.4739926284785	-807.5255892310518	7706.240810780361	1230.7740374985196	-827.3790093905627	7695.301374453466	1176.1833722266879	-764.2780696781454	7730.354255696374	1202.18296779898	-793.4090141025038	7745.993817251892	1217.3088865181626	-823.1531819166448	7746.764756527078	1225.8659012732955	-842.8177492646503	7741.364350140851	1232.3773704967625	-859.8850800322459	7698.430585538984	1165.7903294593227	-769.611058683147	7734.315201831089	1185.5287981514882	-800.906421768271	7751.669331540908	1200.574802607595	-833.9842404722373	7752.737744852075	1210.198211138006	-858.0068262515872	7746.895946734009	1216.9824860587692	-876.8264534160651	7699.854193660665	1157.797013985094	-772.5592319141438	7733.563742245605	1168.5854045307735	-802.9423861246469	7748.92655808724	1180.1766745132147	-832.3594028492304	7750.082909001161	1188.6504745206057	-855.8424357346204	7744.649741016829	1194.64615763174	-873.6851647980086	7699.634079761023	1147.7299179515696	-775.7135499237102	7730.787986883109	1151.47010889622	-805.2791121251357	7743.311738146978	1158.3289558828835	-829.6178718790811	7744.262465732594	1163.3376889074912	-847.1251151863144	7739.511303381007	1167.9743370468384	-863.1487722012815	7169.54076552187	1210.6359525153957	-416.14433492074807	7089.107396427848	1115.3473650387655	-380.88205326389254	7230.444497134084	1071.830360399002	-601.2855470109779	7476.930859912824	1135.6365136597767	-568.3123632403349	7491.375457187545	1169.327649916045	-576.7039163956808	7513.70676691632	1181.4755293470025	-602.6817911745452	7526.865510392197	1187.5149402185034	-623.5951083827194	7535.788421940828	1190.4791688360563	-643.4440601378369	7482.719208686524	1165.697047387799	-586.9553477032965	7488.771861644045	1194.1948363804784	-628.6694341326468	7500.483657996392	1203.585510618798	-661.094230411612	7513.360972572138	1203.4528994333132	-677.5808325873211	7527.794261633999	1199.3156512131077	-688.7499880820513	7476.357032120143	1157.625858530017	-593.341131270804	7478.817164413584	1181.0590138392502	-637.4809019349864	7490.747321742655	1190.1356565430226	-673.5743310115723	7505.875579936276	1189.413981536855	-693.8062352437386	7521.469994522938	1184.6140199067816	-706.1932908741827	7471.617110252483	1151.2922104718432	-596.7804776325904	7469.442241767059	1167.075414259618	-639.3015065643458	7478.9692173387	1173.7523364141564	-671.4184478211426	7493.098873828509	1172.4007180491465	-691.2830335824872	7507.542273644708	1167.5769081285976	-703.0955100320634	7466.692373827502	1142.4115312216168	-599.5969172577979	7461.359496590191	1151.743763543749	-640.3208054384666	7467.639022026525	1155.0951888193983	-666.8796895179835	7477.292541083332	1153.1441639767418	-681.7757369985899	7489.711397702962	1148.3156004777811	-692.4737519414649
137	1.133	7446.805	859.65103	-201.189	7539.97695474082	865.2271420425884	-217.95016232663994	7404.406998196115	468.2102895501589	-239.17119009247102	7457.9995971005255	48.832675302850824	-273.4123807771666	7385.765410001985	-27.91009533401827	-111.27115191757218	7361.931579845803	825.275709358247	-171.80939546393884	7237.973352891408	431.2046398655976	-104.05968883346502	7181.1026808123615	73.44431283312707	109.28948839800026	7229.787297165619	45.89074309878733	292.1351157094321	7404.8471370106745	985.0949536219464	-255.4106569241941	7356.117584664136	1056.0354903978919	-300.7936349167543	7300.178829383911	1125.4512014539102	-349.3409948246898	7239.160772251209	1183.7441472503003	-398.57766329061064	7173.1231089185885	1246.252982359905	-448.0986385304978	7139.516974634364	1320.933784636062	-399.5613673361208	7109.217558694745	1400.9009577776076	-264.12455564151173	7218.76794093094	1242.1968858126634	-444.3355287337668	7321.09196272398	1294.992251434885	-502.0691827073814	7490.045513966256	1104.7801264613663	-571.9384625367234	7670.5317765434265	1150.261802253874	-753.467758604154	7684.553074835166	1185.799564090531	-755.8811600546985	7691.351428167175	1210.2107443682337	-783.6216178937058	7697.8415608457135	1223.772649602432	-805.1147627224781	7704.754109633182	1232.1374652680734	-824.8930550654303	7693.7607268117845	1177.2906631334881	-762.1271210045219	7728.725526752822	1203.4428560612555	-791.0988006546426	7744.36533397612	1218.677511637176	-820.7208387668356	7745.174031372516	1227.2928384958216	-840.3102162569621	7739.830243319737	1233.8463064897237	-857.315810325621	7696.905978075399	1166.8885737625783	-767.4832106959101	7732.7133410958995	1186.7709872753276	-798.6357301129453	7750.0702179286	1201.9339598146803	-831.5838315946164	7751.18537471103	1211.6269108918837	-855.5174073951596	7745.406105719569	1218.4567468637383	-874.270311723591	7698.3425480030555	1158.8849680735425	-770.4518952466044	7731.992305127393	1169.7934154183426	-800.7252084672284	7747.360177793429	1181.4846856790514	-830.0330159405269	7748.5630304880015	1190.0245296566723	-853.432237708259	7743.189325727534	1196.0625610071909	-871.2132000605992	7698.144795569333	1148.8016284108576	-773.6334711591855	7729.25554505328	1152.6419539798774	-803.1154653341335	7741.787764623457	1159.5773125010542	-827.3732631699548	7742.774548406012	1164.6324937427867	-844.8225131654636	7738.077291053216	1169.3056630637216	-860.7932613691667	7169.990505082756	1211.0753955746543	-415.93982695871955	7090.005445490435	1116.30260993334	-380.7647577171059	7230.666689386974	1072.628034664323	-600.0669094093645	7475.957220933637	1136.3967496922426	-567.0562333794485	7490.471338650648	1170.103863189432	-575.3227776371197	7512.787809130203	1182.2202950096498	-601.1390138354756	7525.935046633331	1188.2391330461853	-621.9409399381461	7534.847363652784	1191.1873464613834	-641.6980341166161	7481.8267649214595	1166.48511489069	-585.568840790749	7487.958025907232	1195.0059747841	-627.0798284432047	7499.673795523792	1204.3826292810174	-659.3531782617741	7512.5205892486665	1204.2219224929997	-675.7548803743932	7526.906362753918	1200.0483474449386	-686.8600063142419	7475.456253678856	1158.4153035497918	-591.964405994136	7477.988564143821	1181.8717152217914	-635.9113740187407	7489.921639015037	1190.9331289627214	-671.8414816955725	7505.012394330163	1190.177590868174	-691.9718865915127	7520.554487406533	1185.3378972346027	-704.2893341721422	7470.708960530506	1152.082358627784	-595.4159157630783	7468.593909731501	1167.8879473849888	-637.7749183257305	7478.121859258877	1174.5516266566635	-669.7517907621021	7492.214507968615	1173.1673609153288	-689.5196845985643	7506.608317469187	1168.3062006008877	-701.2672864325045	7465.769330174468	1143.1993112156142	-598.251707612925	7460.483915939159	1152.5516916073295	-638.8390857455041	7466.761508802539	1155.8924604073752	-665.2900752440387	7476.386722107358	1153.9175972707003	-680.1176595199024	7488.76089465125	1149.0559328849408	-690.7593940953938
138	1.142	7446.805	859.65103	-201.189	7539.472818030742	865.0017701400964	-218.12894353124108	7404.390982263764	467.8962660645773	-239.18509290849826	7458.639782791978	49.05476470494656	-274.2019793551945	7387.0112543890855	-27.884409072881486	-112.24530356099565	7362.416766083068	825.4988409983555	-171.6256897820257	7238.4007312665035	431.5038039822087	-103.5928060193377	7181.330639033272	73.61320973743314	109.31501022729765	7230.263602424183	45.83719650612545	292.01175451630684	7404.960350913777	985.1187287257382	-255.4206540984483	7356.279060440842	1056.1196956331207	-300.75208013314705	7300.3889409288395	1125.6087674361515	-349.23239539485604	7239.424985789042	1184.0103812070445	-398.38415889907054	7173.439818508938	1246.6264873435664	-447.8073562601323	7139.741829723323	1321.2790837574528	-399.35047997698024	7109.4465908947195	1401.3263062781746	-263.99266697609266	7218.9210583765	1242.424133665205	-444.04710997116337	7320.660290922421	1294.847740859202	-501.5072878858335	7489.256221152622	1105.1617328776042	-570.3955470441955	7668.951799782166	1151.178882242392	-751.3351995292186	7682.877141501113	1186.8043176153417	-753.6231637103564	7689.687356238147	1211.3224266451416	-781.2085096261956	7696.188830348601	1224.9577449039143	-802.5989910063148	7703.113469814911	1233.382861777196	-822.2962796469241	7692.075335297723	1178.298938954057	-759.8794918073789	7726.941131711854	1204.5898523773326	-788.6835946217659	7742.574534681547	1219.9250495543374	-818.1747315907913	7743.4187252975435	1228.5951747651975	-837.6835272715325	7738.13094185501	1235.1887997922977	-854.6229630406135	7695.235383006135	1167.8893500232948	-765.2553040603852	7730.954166537309	1187.9030096650263	-796.2550460968059	7748.306406614377	1203.174258600182	-829.0634364637118	7749.46551317298	1212.9326334490752	-852.9012943475738	7743.748072046357	1219.8060738276074	-871.5825392441785	7696.684298919829	1159.8768860089276	-768.2423455994401	7730.263533111294	1170.8952080648232	-798.3951042346018	7745.629914500074	1182.67917959119	-827.5845753299984	7746.876514609113	1191.2812415979733	-850.8932945034503	7741.5615854570115	1197.3598510850143	-868.6077437086034	7696.50863939681	1149.7794749144907	-771.4487780856197	7727.566166158893	1153.7118797823373	-800.8359624857474	7740.101482296733	1160.7183812493763	-825.0048866608289	7741.122251185976	1165.8174504001217	-842.3909708238693	7736.47825400938	1170.5257054480069	-858.3044377527498	7170.445467241478	1211.5190995540775	-415.7301439142969	7090.931184617373	1117.2865841663079	-380.6297356735057	7230.884033891832	1073.4149427192383	-598.7800419159921	7474.922602594154	1137.0869732013523	-565.7415485504914	7489.497227777734	1170.8012630731066	-573.88210768256	7511.791373086427	1182.8806052925459	-599.5336884988426	7524.923242974454	1188.8748772556312	-620.221439368659	7533.822902400578	1191.8036915950954	-639.8837704803245	7480.868511097024	1167.1928238804269	-584.120209868681	7487.075298996787	1195.722903827649	-625.4203441623657	7498.792020400564	1205.078611525345	-657.5371398629561	7511.605071380682	1204.8881181171519	-673.8520832656724	7525.939756374647	1200.6785808451978	-684.8925294603673	7474.493406728305	1159.124826546617	-590.5239820706338	7477.0969141946625	1182.591220205801	-634.2697320653587	7489.030112164173	1191.629952093706	-670.0307626153868	7504.079718676811	1190.8385615910368	-690.0573383316096	7519.5656980259255	1185.959559609397	-702.3044239222403	7469.741481459993	1152.7932158821716	-593.9867317086721	7467.687796932575	1168.6097511243647	-636.1753381734515	7477.2147998196215	1175.2538210550201	-668.0069521536292	7491.267197486026	1173.835057863651	-687.6758149168942	7505.607980644265	1168.936978096269	-699.3577897277222	7464.790068520584	1143.9091709109452	-596.8411064516717	7459.555512260742	1153.2719455118406	-637.283791072879	7465.830431269507	1156.597211970285	-663.6224971088361	7475.425358543431	1154.5972830656863	-678.3797991825406	7487.75202503722	1149.7029697358214	-688.9645219549201
